<mxfile host="app.diagrams.net" modified="2023-09-04T22:07:23.006Z" agent="Mozilla/5.0 (Windows NT 10.0; Win64; x64) AppleWebKit/537.36 (KHTML, like Gecko) Chrome/116.0.0.0 Safari/537.36" etag="HgwDsRRSMBIhoRVw3r8i" version="21.7.2" type="device">
  <diagram name="Page-1" id="xuw0v9dkFITsqdOJRgeV">
    <mxGraphModel dx="1050" dy="566" grid="1" gridSize="10" guides="1" tooltips="1" connect="1" arrows="1" fold="1" page="1" pageScale="1" pageWidth="850" pageHeight="1100" math="0" shadow="0">
      <root>
        <mxCell id="0" />
        <mxCell id="1" parent="0" />
        <mxCell id="TH57L3ZnjAiNBrnV2quw-1" value="&lt;b&gt;&lt;font style=&quot;font-size: 8px;&quot;&gt;Front End UI&lt;/font&gt;&lt;/b&gt;" style="rounded=0;whiteSpace=wrap;html=1;" parent="1" vertex="1">
          <mxGeometry x="110" y="150" width="70" height="20" as="geometry" />
        </mxCell>
        <mxCell id="TH57L3ZnjAiNBrnV2quw-2" value="" style="rounded=0;whiteSpace=wrap;html=1;" parent="1" vertex="1">
          <mxGeometry x="20" y="190" width="320" height="280" as="geometry" />
        </mxCell>
        <mxCell id="TH57L3ZnjAiNBrnV2quw-3" value="" style="rounded=0;whiteSpace=wrap;html=1;" parent="1" vertex="1">
          <mxGeometry x="20" y="190" width="320" height="20" as="geometry" />
        </mxCell>
        <mxCell id="TH57L3ZnjAiNBrnV2quw-4" value="Logo" style="rounded=0;whiteSpace=wrap;html=1;" parent="1" vertex="1">
          <mxGeometry x="20" y="190" width="35" height="20" as="geometry" />
        </mxCell>
        <mxCell id="837Gy28WKSmCmA3TRd3x-1" value="" style="rounded=0;whiteSpace=wrap;html=1;" vertex="1" parent="1">
          <mxGeometry x="40" y="250" width="280" height="20" as="geometry" />
        </mxCell>
        <mxCell id="837Gy28WKSmCmA3TRd3x-2" value="Submit" style="rounded=1;whiteSpace=wrap;html=1;arcSize=0;" vertex="1" parent="1">
          <mxGeometry x="260" y="250" width="60" height="20" as="geometry" />
        </mxCell>
        <mxCell id="837Gy28WKSmCmA3TRd3x-3" value="" style="rounded=0;whiteSpace=wrap;html=1;" vertex="1" parent="1">
          <mxGeometry x="60" y="330" width="240" height="110" as="geometry" />
        </mxCell>
        <mxCell id="837Gy28WKSmCmA3TRd3x-4" value="" style="rounded=0;whiteSpace=wrap;html=1;" vertex="1" parent="1">
          <mxGeometry x="60" y="310" width="240" height="20" as="geometry" />
        </mxCell>
        <mxCell id="837Gy28WKSmCmA3TRd3x-5" value="Action" style="rounded=0;whiteSpace=wrap;html=1;" vertex="1" parent="1">
          <mxGeometry x="60" y="310" width="45" height="20" as="geometry" />
        </mxCell>
        <mxCell id="837Gy28WKSmCmA3TRd3x-6" value="Edit" style="rounded=0;whiteSpace=wrap;html=1;" vertex="1" parent="1">
          <mxGeometry x="210" y="310" width="40" height="20" as="geometry" />
        </mxCell>
        <mxCell id="837Gy28WKSmCmA3TRd3x-7" value="Delete" style="rounded=0;whiteSpace=wrap;html=1;" vertex="1" parent="1">
          <mxGeometry x="260" y="310" width="40" height="20" as="geometry" />
        </mxCell>
        <mxCell id="837Gy28WKSmCmA3TRd3x-8" value="&lt;font style=&quot;font-size: 10px;&quot;&gt;Work on the YouTube video&lt;/font&gt;" style="text;html=1;align=center;verticalAlign=middle;resizable=0;points=[];autosize=1;strokeColor=none;fillColor=none;" vertex="1" parent="1">
          <mxGeometry x="60" y="340" width="150" height="30" as="geometry" />
        </mxCell>
        <mxCell id="837Gy28WKSmCmA3TRd3x-10" value="Edit" style="rounded=0;whiteSpace=wrap;html=1;" vertex="1" parent="1">
          <mxGeometry x="210" y="345" width="40" height="20" as="geometry" />
        </mxCell>
        <mxCell id="837Gy28WKSmCmA3TRd3x-11" value="Delete" style="rounded=0;whiteSpace=wrap;html=1;" vertex="1" parent="1">
          <mxGeometry x="260" y="345" width="40" height="20" as="geometry" />
        </mxCell>
        <mxCell id="837Gy28WKSmCmA3TRd3x-12" value="HTTP" style="rounded=0;whiteSpace=wrap;html=1;" vertex="1" parent="1">
          <mxGeometry x="380" y="145" width="60" height="30" as="geometry" />
        </mxCell>
        <mxCell id="837Gy28WKSmCmA3TRd3x-13" value="POST" style="rounded=0;whiteSpace=wrap;html=1;" vertex="1" parent="1">
          <mxGeometry x="410" y="190" width="60" height="30" as="geometry" />
        </mxCell>
        <mxCell id="837Gy28WKSmCmA3TRd3x-14" value="PUT" style="rounded=0;whiteSpace=wrap;html=1;" vertex="1" parent="1">
          <mxGeometry x="550" y="270" width="40" height="20" as="geometry" />
        </mxCell>
        <mxCell id="837Gy28WKSmCmA3TRd3x-15" value="DELETE" style="rounded=0;whiteSpace=wrap;html=1;" vertex="1" parent="1">
          <mxGeometry x="420" y="340" width="60" height="20" as="geometry" />
        </mxCell>
        <mxCell id="837Gy28WKSmCmA3TRd3x-16" value="GET" style="rounded=0;whiteSpace=wrap;html=1;" vertex="1" parent="1">
          <mxGeometry x="520" y="425" width="60" height="30" as="geometry" />
        </mxCell>
        <mxCell id="837Gy28WKSmCmA3TRd3x-17" value="" style="rounded=0;whiteSpace=wrap;html=1;" vertex="1" parent="1">
          <mxGeometry x="600" y="175" width="160" height="310" as="geometry" />
        </mxCell>
        <mxCell id="837Gy28WKSmCmA3TRd3x-18" value="SERVER" style="rounded=0;whiteSpace=wrap;html=1;" vertex="1" parent="1">
          <mxGeometry x="640" y="130" width="80" height="30" as="geometry" />
        </mxCell>
        <mxCell id="837Gy28WKSmCmA3TRd3x-19" value="Create TODO" style="rounded=0;whiteSpace=wrap;html=1;" vertex="1" parent="1">
          <mxGeometry x="630" y="215" width="100" height="40" as="geometry" />
        </mxCell>
        <mxCell id="837Gy28WKSmCmA3TRd3x-20" value="Update TODO" style="rounded=0;whiteSpace=wrap;html=1;" vertex="1" parent="1">
          <mxGeometry x="630" y="275" width="100" height="40" as="geometry" />
        </mxCell>
        <mxCell id="837Gy28WKSmCmA3TRd3x-21" value="Delete TODO" style="rounded=0;whiteSpace=wrap;html=1;" vertex="1" parent="1">
          <mxGeometry x="630" y="330" width="100" height="40" as="geometry" />
        </mxCell>
        <mxCell id="837Gy28WKSmCmA3TRd3x-22" value="Read All TODOS" style="rounded=0;whiteSpace=wrap;html=1;" vertex="1" parent="1">
          <mxGeometry x="630" y="385" width="100" height="40" as="geometry" />
        </mxCell>
        <mxCell id="837Gy28WKSmCmA3TRd3x-24" value="Database&lt;br&gt;POSTGRES&lt;br&gt;SQL" style="shape=cylinder3;whiteSpace=wrap;html=1;boundedLbl=1;backgroundOutline=1;size=15;" vertex="1" parent="1">
          <mxGeometry x="635" y="520" width="90" height="110" as="geometry" />
        </mxCell>
        <mxCell id="837Gy28WKSmCmA3TRd3x-30" value="" style="curved=1;endArrow=classic;html=1;rounded=0;" edge="1" parent="1" target="837Gy28WKSmCmA3TRd3x-19">
          <mxGeometry width="50" height="50" relative="1" as="geometry">
            <mxPoint x="320" y="260" as="sourcePoint" />
            <mxPoint x="370" y="210" as="targetPoint" />
            <Array as="points">
              <mxPoint x="370" y="260" />
              <mxPoint x="450" y="220" />
            </Array>
          </mxGeometry>
        </mxCell>
        <mxCell id="837Gy28WKSmCmA3TRd3x-31" value="" style="curved=1;endArrow=classic;html=1;rounded=0;exitX=0;exitY=0.75;exitDx=0;exitDy=0;entryX=1.127;entryY=0.24;entryDx=0;entryDy=0;entryPerimeter=0;" edge="1" parent="1" source="837Gy28WKSmCmA3TRd3x-19" target="837Gy28WKSmCmA3TRd3x-2">
          <mxGeometry width="50" height="50" relative="1" as="geometry">
            <mxPoint x="390" y="265" as="sourcePoint" />
            <mxPoint x="440" y="215" as="targetPoint" />
            <Array as="points">
              <mxPoint x="420" y="280" />
            </Array>
          </mxGeometry>
        </mxCell>
        <mxCell id="837Gy28WKSmCmA3TRd3x-33" value="" style="curved=1;endArrow=classic;html=1;rounded=0;entryX=0;entryY=0.5;entryDx=0;entryDy=0;exitX=0.5;exitY=0;exitDx=0;exitDy=0;" edge="1" parent="1" source="837Gy28WKSmCmA3TRd3x-6" target="837Gy28WKSmCmA3TRd3x-20">
          <mxGeometry width="50" height="50" relative="1" as="geometry">
            <mxPoint x="300" y="320" as="sourcePoint" />
            <mxPoint x="350" y="270" as="targetPoint" />
            <Array as="points">
              <mxPoint x="340" y="290" />
              <mxPoint x="430" y="290" />
            </Array>
          </mxGeometry>
        </mxCell>
        <mxCell id="837Gy28WKSmCmA3TRd3x-34" value="" style="curved=1;endArrow=classic;html=1;rounded=0;exitX=0;exitY=0.75;exitDx=0;exitDy=0;entryX=0.8;entryY=-0.44;entryDx=0;entryDy=0;entryPerimeter=0;" edge="1" parent="1" source="837Gy28WKSmCmA3TRd3x-20" target="837Gy28WKSmCmA3TRd3x-6">
          <mxGeometry width="50" height="50" relative="1" as="geometry">
            <mxPoint x="410" y="320" as="sourcePoint" />
            <mxPoint x="310" y="330" as="targetPoint" />
            <Array as="points">
              <mxPoint x="410" y="270" />
            </Array>
          </mxGeometry>
        </mxCell>
        <mxCell id="837Gy28WKSmCmA3TRd3x-35" value="" style="curved=1;endArrow=classic;html=1;rounded=0;exitX=1;exitY=0;exitDx=0;exitDy=0;" edge="1" parent="1">
          <mxGeometry width="50" height="50" relative="1" as="geometry">
            <mxPoint x="300" y="312.5" as="sourcePoint" />
            <mxPoint x="630" y="340" as="targetPoint" />
            <Array as="points">
              <mxPoint x="400" y="292.5" />
            </Array>
          </mxGeometry>
        </mxCell>
        <mxCell id="837Gy28WKSmCmA3TRd3x-36" value="" style="curved=1;endArrow=classic;html=1;rounded=0;exitX=0;exitY=0.5;exitDx=0;exitDy=0;entryX=1;entryY=0.5;entryDx=0;entryDy=0;" edge="1" parent="1" source="837Gy28WKSmCmA3TRd3x-21" target="837Gy28WKSmCmA3TRd3x-7">
          <mxGeometry width="50" height="50" relative="1" as="geometry">
            <mxPoint x="390" y="420" as="sourcePoint" />
            <mxPoint x="440" y="370" as="targetPoint" />
            <Array as="points">
              <mxPoint x="420" y="330" />
            </Array>
          </mxGeometry>
        </mxCell>
        <mxCell id="837Gy28WKSmCmA3TRd3x-40" value="" style="curved=1;endArrow=classic;html=1;rounded=0;exitX=0.792;exitY=0.545;exitDx=0;exitDy=0;exitPerimeter=0;entryX=0;entryY=0.5;entryDx=0;entryDy=0;" edge="1" parent="1" source="837Gy28WKSmCmA3TRd3x-3" target="837Gy28WKSmCmA3TRd3x-22">
          <mxGeometry width="50" height="50" relative="1" as="geometry">
            <mxPoint x="390" y="420" as="sourcePoint" />
            <mxPoint x="440" y="370" as="targetPoint" />
            <Array as="points">
              <mxPoint x="390" y="370" />
            </Array>
          </mxGeometry>
        </mxCell>
        <mxCell id="837Gy28WKSmCmA3TRd3x-41" value="" style="curved=1;endArrow=classic;html=1;rounded=0;exitX=0;exitY=0.75;exitDx=0;exitDy=0;entryX=0.667;entryY=0.818;entryDx=0;entryDy=0;entryPerimeter=0;" edge="1" parent="1" source="837Gy28WKSmCmA3TRd3x-22" target="837Gy28WKSmCmA3TRd3x-3">
          <mxGeometry width="50" height="50" relative="1" as="geometry">
            <mxPoint x="390" y="420" as="sourcePoint" />
            <mxPoint x="440" y="370" as="targetPoint" />
            <Array as="points">
              <mxPoint x="440" y="420" />
              <mxPoint x="380" y="400" />
            </Array>
          </mxGeometry>
        </mxCell>
        <mxCell id="837Gy28WKSmCmA3TRd3x-42" value="" style="endArrow=classic;html=1;rounded=0;" edge="1" parent="1" source="837Gy28WKSmCmA3TRd3x-17" target="837Gy28WKSmCmA3TRd3x-24">
          <mxGeometry width="50" height="50" relative="1" as="geometry">
            <mxPoint x="640" y="470" as="sourcePoint" />
            <mxPoint x="690" y="420" as="targetPoint" />
          </mxGeometry>
        </mxCell>
        <mxCell id="837Gy28WKSmCmA3TRd3x-43" value="" style="endArrow=classic;html=1;rounded=0;entryX=0.438;entryY=1.011;entryDx=0;entryDy=0;entryPerimeter=0;" edge="1" parent="1" target="837Gy28WKSmCmA3TRd3x-17">
          <mxGeometry width="50" height="50" relative="1" as="geometry">
            <mxPoint x="670" y="520" as="sourcePoint" />
            <mxPoint x="720" y="470" as="targetPoint" />
          </mxGeometry>
        </mxCell>
      </root>
    </mxGraphModel>
  </diagram>
</mxfile>
